<svg xmlns="http://www.w3.org/2000/svg" xmlns:xlink="http://www.w3.org/1999/xlink" viewBox="0 0 88.37 11.49"><defs><style>.cls-1{fill:url(#linear-gradient);}.cls-2{fill:url(#linear-gradient-2);}.cls-3{fill:url(#linear-gradient-3);}.cls-4{fill:url(#linear-gradient-4);}.cls-5{fill:url(#linear-gradient-5);}.cls-6{fill:url(#linear-gradient-6);}.cls-7{fill:url(#linear-gradient-7);}.cls-8{fill:url(#linear-gradient-8);}</style><linearGradient id="linear-gradient" x1="-4.3" y1="5.89" x2="88.91" y2="4.36" gradientUnits="userSpaceOnUse"><stop offset="0" stop-color="#f9107a"/><stop offset="1" stop-color="#3af9f9"/></linearGradient><linearGradient id="linear-gradient-2" x1="-3.37" y1="9.31" x2="89.85" y2="7.78" xlink:href="#linear-gradient"/><linearGradient id="linear-gradient-3" x1="-3.42" y1="6.1" x2="89.37" y2="4.58" xlink:href="#linear-gradient"/><linearGradient id="linear-gradient-4" x1="-3.41" y1="6.9" x2="89.81" y2="5.37" xlink:href="#linear-gradient"/><linearGradient id="linear-gradient-5" x1="-3.41" y1="6.64" x2="89.8" y2="5.11" xlink:href="#linear-gradient"/><linearGradient id="linear-gradient-6" x1="-3.42" y1="6.23" x2="89.8" y2="4.7" xlink:href="#linear-gradient"/><linearGradient id="linear-gradient-7" x1="-3.41" y1="7.04" x2="89.81" y2="5.51" xlink:href="#linear-gradient"/><linearGradient id="linear-gradient-8" x1="-3.41" y1="6.59" x2="89.8" y2="5.06" xlink:href="#linear-gradient"/></defs><g id="Layer_2" data-name="Layer 2"><g id="Layer_2-2" data-name="Layer 2"><path class="cls-1" d="M0,.64A.92.92,0,0,1,1,.08c.5,0,1,0,1.5,0A1.68,1.68,0,0,1,3.69.54c1.69,1.51,3.37,3,5.07,4.54A1.76,1.76,0,0,1,9.39,6.5c0,1.3,0,2.61,0,3.91,0,.38.06.43.43.43H11.3c.26,0,.35-.08.35-.35V1c0-.27-.09-.35-.36-.36H10A1.1,1.1,0,0,0,9.22,1L8.12,2.1,8,2.24a.26.26,0,0,1-.37,0,.23.23,0,0,1,0-.36c.45-.47.9-.95,1.38-1.4a1.46,1.46,0,0,1,1-.36h1.33a.78.78,0,0,1,.84.84q0,4.79,0,9.57a.76.76,0,0,1-.83.84H9.65a.77.77,0,0,1-.83-.83c0-1.34,0-2.68,0-4a1.3,1.3,0,0,0-.47-1.06C6.73,4,5.09,2.51,3.45,1A1.5,1.5,0,0,0,2.37.61c-.49,0-1,0-1.46,0C.61.61.52.7.52,1v9.48c0,.3.08.37.39.37H2.28c.35,0,.41-.06.41-.41V4.69c0-.25,0-.52.27-.65s.48.06.68.24L5.35,5.83,5.5,6a.26.26,0,0,1,0,.4.27.27,0,0,1-.4,0l-.76-.69L3.22,4.62v5.85a.79.79,0,0,1-.9.9c-.46,0-.91,0-1.37,0A.88.88,0,0,1,0,10.81Z"/><path class="cls-2" d="M41.6,11.49c-.19-.11-.19-.27-.15-.46.18-.78.35-1.56.54-2.33a.39.39,0,0,0-.12-.43,1.55,1.55,0,0,1-.29-1.8,1.61,1.61,0,0,1,1.57-.87,1.57,1.57,0,0,1,1.38,1.22,1.37,1.37,0,0,1-.4,1.39.44.44,0,0,0-.13.47c.19.78.36,1.56.54,2.35a.36.36,0,0,1-.15.46ZM44,11c0-.09,0-.18,0-.26-.15-.64-.27-1.29-.45-1.93a.76.76,0,0,1,.25-.9,1,1,0,0,0-.43-1.69A1.05,1.05,0,0,0,42.38,8a.41.41,0,0,1,.18.51c-.17.73-.33,1.47-.51,2.2,0,.17,0,.23.19.23H43.8Z"/><path class="cls-3" d="M19.36.07h4.18a.79.79,0,0,1,.91.9c0,.53,0,1.07,0,1.6a.77.77,0,0,1-.67.73,2.36,2.36,0,0,1-.38,0H18c-.31,0-.39.08-.39.38s.08.36.37.36h5.49a1.94,1.94,0,0,1,.34,0,.75.75,0,0,1,.65.76c0,.57,0,1.15,0,1.73a.74.74,0,0,1-.66.74,2.69,2.69,0,0,1-.4,0c-2.24,0-4.47,0-6.71,0-.87,0-2,1.08-1.91,1.93,0,.41,0,.83,0,1.24s.07.36.35.36h8.44c.3,0,.37-.07.37-.36,0-.51,0-1,0-1.54,0-.29-.07-.36-.37-.36H17.47c-.1,0-.22,0-.29,0a.39.39,0,0,1-.2-.26c0-.08.13-.18.22-.24s.13,0,.21,0h6.06c.67,0,1,.29,1,1l0,1.41c0,.66-.3.95-.95,1H17.85l-2.68,0a1,1,0,0,1-.71-.23.78.78,0,0,1-.24-.58V9a1.51,1.51,0,0,1,.06-.36,2.7,2.7,0,0,1,2.41-1.85c2.26,0,4.52,0,6.77,0,.4,0,.44,0,.44-.44V5c0-.31-.06-.37-.37-.37H18.11l-.41,0a.66.66,0,0,1-.2-.06.91.91,0,0,1-.44-1.06.76.76,0,0,1,.66-.66,1.72,1.72,0,0,1,.32,0h5.44c.37,0,.42,0,.43-.42V.93c0-.26-.07-.33-.33-.33h-7.5l-1,0c-.31,0-.37.08-.37.39V5.91a1.77,1.77,0,0,1,0,.23.26.26,0,0,1-.51,0,.61.61,0,0,1,0-.19V1a.8.8,0,0,1,.92-.91h4.22Z"/><path class="cls-4" d="M68.51,11.36H64.39c-.65,0-.93-.28-.93-.94,0-.36,0-.71,0-1.07A2.42,2.42,0,0,1,64.7,7.14a2,2,0,0,1,1.19-.35h6.79c.42,0,.46,0,.46-.45V5c0-.34-.07-.41-.41-.41H67.16a.88.88,0,0,1-.63-.21,1.07,1.07,0,0,1-.17-1.11.79.79,0,0,1,.79-.47h5.53c.42,0,.46,0,.47-.46s0-.9,0-1.35-.1-.41-.43-.41L64.36.6C64.05.6,64,.69,64,1V5.94c0,.29-.07.41-.24.42s-.27-.13-.27-.43V1a.81.81,0,0,1,.93-.93h7.39c.41,0,.83,0,1.24,0a.66.66,0,0,1,.63.7c0,.58,0,1.16,0,1.73a.77.77,0,0,1-.83.77H67.21a.39.39,0,0,0-.37.62.37.37,0,0,0,.22.14.6.6,0,0,0,.23,0h5.36a1.58,1.58,0,0,1,.38,0,.7.7,0,0,1,.61.69q0,.88,0,1.77a.74.74,0,0,1-.78.74h-7A2,2,0,0,0,64,9.17v1.32c0,.28.09.36.36.36h8.44c.31,0,.41-.11.41-.42,0-.52,0-1,0-1.58a.29.29,0,0,0-.31-.31H66.65c-.31,0-.44-.07-.44-.25s.13-.26.44-.26h6.06a1.53,1.53,0,0,1,.66.19.68.68,0,0,1,.28.62c0,.56,0,1.12,0,1.68a.72.72,0,0,1-.69.8,1.67,1.67,0,0,1-.32,0H68.51Z"/><path class="cls-5" d="M60.63.57H58.45a1.13,1.13,0,0,0-.92.43c-.65.79-1.31,1.57-2,2.36a1.07,1.07,0,0,1-.14.16A.25.25,0,0,1,55,3.17l.64-.78L57.15.64A1.49,1.49,0,0,1,58.4.05c.72,0,1.44,0,2.16,0a1.12,1.12,0,0,1,.32,0,.43.43,0,0,1,.28.61,3,3,0,0,1-.25.37l-3.2,4a.48.48,0,0,0,0,.74l3.56,4.51a1.78,1.78,0,0,1,.24.32.45.45,0,0,1-.39.73H58.46a1.39,1.39,0,0,1-1.17-.56c-.94-1.24-1.87-2.48-2.84-3.7a4.42,4.42,0,0,1-1-1.94,3.65,3.65,0,0,1-.08-.74c0-1.15,0-2.29,0-3.44,0-.33,0-.39-.38-.41H51.39a.27.27,0,0,0-.31.3,1,1,0,0,0,0,.17v9.34a1.48,1.48,0,0,0,0,.21.25.25,0,0,0,.27.26H53.2c.21,0,.27-.14.27-.33V8.34a1.48,1.48,0,0,1,0-.21.25.25,0,1,1,.5,0,.76.76,0,0,1,0,.15v2.2a.77.77,0,0,1-.85.85H51.38a.76.76,0,0,1-.82-.81V.81a.76.76,0,0,1,.79-.8c.57,0,1.14,0,1.71,0a.78.78,0,0,1,.85.88c0,1,0,2.07,0,3.1a3.9,3.9,0,0,0,.92,2.69c.94,1.16,1.81,2.37,2.72,3.55.06.08.12.17.19.25a.85.85,0,0,0,.64.32h2.48l.14,0a1.28,1.28,0,0,0-.1-.17L57.35,6.15A1.2,1.2,0,0,1,57,5.41a1,1,0,0,1,.26-.68l3.2-4Z"/><path class="cls-6" d="M32.19,0h5.07c.64,0,.92.27.92.9V2.48a.76.76,0,0,1-.82.81H35.79c-.23,0-.35-.08-.35-.24s.12-.27.36-.27h1.5c.28,0,.36-.08.36-.37V.93c0-.3-.08-.37-.37-.37H27.08c-.27,0-.36.07-.37.33,0,.53,0,1,0,1.58,0,.23.11.3.37.3h4.52a8.78,8.78,0,0,1,1,0A1.54,1.54,0,0,1,34,4a2.36,2.36,0,0,1,0,.38q0,3,0,6a.79.79,0,0,1-.9.9H31.58a.77.77,0,0,1-.82-.8V5.06c0-.23.1-.35.26-.36s.26.12.26.36v5.28c0,.41,0,.46.47.46h1.39c.28,0,.36-.09.36-.36V4.36a.9.9,0,0,0-.67-.94A3.1,3.1,0,0,0,32,3.3H27.11c-.64,0-.93-.29-.93-.93V.94A.8.8,0,0,1,27.09,0h5.1Z"/><path class="cls-7" d="M87.85.59l-.28,0h-2a.89.89,0,0,0-.77.41c-.42.6-.86,1.19-1.28,1.79-.09.12-.18.22-.34.17s-.21-.24-.08-.43L84,1.25l.41-.57a1.34,1.34,0,0,1,1.2-.61l2.08,0h.21a.47.47,0,0,1,.41.78c-.26.4-.55.79-.82,1.19L85,5.5a1.4,1.4,0,0,1-1.14.69,1.29,1.29,0,0,1-1.09-.57L79.33,1a1,1,0,0,0-.82-.42h-2l-.3,0,.39.55L80.84,7a2,2,0,0,1,.37,1.39c0,.34,0,.68,0,1s0,.66,0,1,.08.38.38.38H83c.31,0,.41-.09.41-.41,0-.73,0-1.45,0-2.18a1.69,1.69,0,0,1,0-.23c0-.14.11-.24.26-.23a.23.23,0,0,1,.23.26c0,.34,0,.67,0,1,0,.48,0,1,0,1.43a.78.78,0,0,1-.87.86H81.53a.74.74,0,0,1-.85-.84c0-.73,0-1.46,0-2.2a1.68,1.68,0,0,0-.34-1Q78.13,4.08,75.88.94a.53.53,0,0,1-.11-.61c.12-.22.33-.24.55-.25.71,0,1.42,0,2.12,0A1.52,1.52,0,0,1,79.75.7c1.14,1.54,2.3,3.08,3.45,4.62a.78.78,0,0,0,1.38,0c.52-.73,1-1.46,1.53-2.19L87.72.81C87.76.75,87.79.68,87.85.59Z"/><path class="cls-8" d="M43,.13h.92A1.05,1.05,0,0,1,45,.9c.32.88.63,1.77.95,2.65l2.43,6.82c0,.12.08.23.11.35a.56.56,0,0,1-.53.72c-.56,0-1.12,0-1.69,0A.23.23,0,0,1,46,11.2c0-.18.12-.26.29-.26h1.42c.29,0,.3,0,.21-.28l-3.3-9.23c-.27-.77-.27-.78-1.07-.77L42.1.68a.51.51,0,0,0-.56.4q-.88,2.42-1.76,4.83c-.57,1.56-1.13,3.11-1.7,4.66a.78.78,0,0,1,0,.14c-.06.16,0,.22.17.22h1.3c.08,0,.18,0,.23,0s.2.16.19.24a.36.36,0,0,1-.21.24c-.58,0-1.16,0-1.74,0a.57.57,0,0,1-.45-.83c.23-.66.47-1.32.71-2C39.15,6.09,40.07,3.56,41,1A2,2,0,0,1,41.28.5.87.87,0,0,1,42,.16h1Z"/></g></g></svg>